<svg width="38" height="38" viewBox="0 0 38 38" fill="none" xmlns="http://www.w3.org/2000/svg">
<g id="message-alt 1">
<path id="Vector" d="M14.2152 26.8677C14.2155 26.8502 14.2165 26.8328 14.2183 26.8154L14.2152 26.8677ZM14.2168 26.6032C14.2173 26.6048 14.2178 26.6064 14.2183 26.608L14.2168 26.6032ZM14.2801 29.6116C18.5203 25.7134 19.0412 25.4062 20.2857 25.2827C25.9097 24.7238 30.0833 20.5992 30.0833 15.8397C30.0833 10.6781 25.1987 6.335 19 6.335C12.8013 6.335 7.91667 10.6797 7.91667 15.8397C7.91667 18.837 9.77708 21.8042 12.7522 23.6883C13.9919 24.4721 14.269 25.4569 14.2421 26.5035C14.2397 26.5828 14.2349 26.662 14.2278 26.741C14.2627 27.2635 14.2785 28.1961 14.2801 29.6116ZM20.5976 28.4352C20.3047 28.4637 18.0247 30.4555 13.7576 34.4107C13.5308 34.621 13.2474 34.7603 12.9424 34.8114C12.6374 34.8625 12.3241 34.8231 12.0412 34.6982C11.7583 34.5732 11.5181 34.3681 11.3504 34.1083C11.1828 33.8484 11.0949 33.5451 11.0976 33.2358C11.1293 29.496 11.115 27.3632 11.0596 26.8392C11.0311 26.5652 11.1102 26.3958 11.0596 26.3642C7.45433 24.0857 4.75 20.2272 4.75 15.8413C4.75 8.84141 11.1308 3.16675 19 3.16675C26.8692 3.16675 33.25 8.84141 33.25 15.8397C33.25 22.3583 27.7163 27.729 20.5992 28.4352H20.5976Z" fill="#FF6846"/>
</g>
</svg>
