<svg width="38" height="38" viewBox="0 0 38 38" fill="none" xmlns="http://www.w3.org/2000/svg">
<g id="workspace 1">
<path id="Vector" d="M19 20.1875V29.6875H7.125V20.1875H19ZM19 17.8125H7.125C6.49511 17.8125 5.89102 18.0627 5.44562 18.5081C5.00022 18.9535 4.75 19.5576 4.75 20.1875V29.6875C4.75 30.3174 5.00022 30.9215 5.44562 31.3669C5.89102 31.8123 6.49511 32.0625 7.125 32.0625H19C19.6299 32.0625 20.234 31.8123 20.6794 31.3669C21.1248 30.9215 21.375 30.3174 21.375 29.6875V20.1875C21.375 19.5576 21.1248 18.9535 20.6794 18.5081C20.234 18.0627 19.6299 17.8125 19 17.8125ZM32.0625 7.125V13.0625H20.1875V7.125H32.0625ZM32.0625 4.75H20.1875C19.5576 4.75 18.9535 5.00022 18.5081 5.44562C18.0627 5.89102 17.8125 6.49511 17.8125 7.125V13.0625C17.8125 13.6924 18.0627 14.2965 18.5081 14.7419C18.9535 15.1873 19.5576 15.4375 20.1875 15.4375H32.0625C32.6924 15.4375 33.2965 15.1873 33.7419 14.7419C34.1873 14.2965 34.4375 13.6924 34.4375 13.0625V7.125C34.4375 6.49511 34.1873 5.89102 33.7419 5.44562C33.2965 5.00022 32.6924 4.75 32.0625 4.75ZM32.0625 20.1875V26.125H26.125V20.1875H32.0625ZM32.0625 17.8125H26.125C25.4951 17.8125 24.891 18.0627 24.4456 18.5081C24.0002 18.9535 23.75 19.5576 23.75 20.1875V26.125C23.75 26.7549 24.0002 27.359 24.4456 27.8044C24.891 28.2498 25.4951 28.5 26.125 28.5H32.0625C32.6924 28.5 33.2965 28.2498 33.7419 27.8044C34.1873 27.359 34.4375 26.7549 34.4375 26.125V20.1875C34.4375 19.5576 34.1873 18.9535 33.7419 18.5081C33.2965 18.0627 32.6924 17.8125 32.0625 17.8125ZM13.0625 7.125V13.0625H7.125V7.125H13.0625ZM13.0625 4.75H7.125C6.49511 4.75 5.89102 5.00022 5.44562 5.44562C5.00022 5.89102 4.75 6.49511 4.75 7.125V13.0625C4.75 13.6924 5.00022 14.2965 5.44562 14.7419C5.89102 15.1873 6.49511 15.4375 7.125 15.4375H13.0625C13.6924 15.4375 14.2965 15.1873 14.7419 14.7419C15.1873 14.2965 15.4375 13.6924 15.4375 13.0625V7.125C15.4375 6.49511 15.1873 5.89102 14.7419 5.44562C14.2965 5.00022 13.6924 4.75 13.0625 4.75Z" fill="black"/>
</g>
</svg>
