<svg width="31" height="29" viewBox="0 0 31 29" fill="none" xmlns="http://www.w3.org/2000/svg">
<path id="Vector" d="M5.9375 1.58407H11.4222C11.723 1.58416 12.0127 1.69846 12.2325 1.90386C12.4524 2.10927 12.586 2.39046 12.6065 2.69063C12.627 2.9908 12.5329 3.28757 12.343 3.52096C12.1531 3.75436 11.8817 3.90698 11.5837 3.94799L11.4222 3.95907H5.9375C5.03506 3.95893 4.16619 4.30129 3.5064 4.917C2.84662 5.5327 2.44509 6.37585 2.38292 7.27616L2.375 7.52157V22.5632C2.37529 23.4657 2.71805 24.3344 3.33404 24.9938C3.95004 25.6533 4.79336 26.0545 5.69367 26.1162L5.9375 26.1257H20.9792C21.8821 26.1263 22.7516 25.7839 23.4118 25.1678C24.0719 24.5517 24.4735 23.7079 24.5353 22.8071L24.5432 22.5632V21.7747C24.5433 21.4739 24.6576 21.1842 24.863 20.9644C25.0684 20.7446 25.3496 20.6109 25.6498 20.5904C25.95 20.5699 26.2467 20.6641 26.4801 20.8539C26.7135 21.0438 26.8662 21.3152 26.9072 21.6132L26.9182 21.7747V22.5632C26.918 24.0832 26.3348 25.5452 25.2888 26.648C24.2428 27.7509 22.8137 28.4106 21.2958 28.4912L20.9792 28.5007H5.9375C4.41725 28.5009 2.95486 27.9178 1.85168 26.8718C0.748508 25.8258 0.0885917 24.3964 0.00791685 22.8783L0 22.5617V7.51999C0.000268635 6.00027 0.583256 4.5385 1.62891 3.4357C2.67456 2.33291 4.10327 1.67304 5.62083 1.59199L5.9375 1.58407ZM18.2147 5.57407V1.18824C18.2145 0.969811 18.2746 0.755578 18.3884 0.569105C18.5021 0.382632 18.6651 0.231144 18.8594 0.131306C19.0537 0.0314673 19.2717 -0.012853 19.4895 0.00321971C19.7074 0.0192924 19.9166 0.0951354 20.0941 0.222406L20.2239 0.330072L29.716 9.43424C30.1593 9.86016 30.1989 10.5426 29.8363 11.0144L29.716 11.149L20.2239 20.2563C20.0663 20.4077 19.87 20.5126 19.6566 20.5596C19.4432 20.6066 19.221 20.5937 19.0144 20.5225C18.8078 20.4513 18.6248 20.3245 18.4857 20.156C18.3466 19.9875 18.2566 19.7839 18.2258 19.5676L18.2147 19.3982V15.0836L17.6716 15.1311C13.8716 15.5269 10.2299 17.2385 6.72283 20.2927C5.8995 21.01 4.62967 20.3323 4.76425 19.2509C5.81717 10.8276 10.222 6.18682 17.7413 5.60416L18.2163 5.57249L18.2147 5.57407ZM20.5897 3.97174V6.72991C20.5897 7.04485 20.4646 7.3469 20.2419 7.5696C20.0192 7.79229 19.7171 7.91741 19.4022 7.91741C13.2699 7.91741 9.46833 10.5711 7.82642 16.0827L7.69975 16.5228L8.25867 16.1476C11.799 13.8343 15.5198 12.6674 19.4006 12.6674C19.6878 12.6675 19.9652 12.7716 20.1815 12.9606C20.3978 13.1495 20.5383 13.4104 20.577 13.695L20.5881 13.8549V16.6147L27.1779 10.2924L20.5913 3.97174H20.5897Z" fill="black"/>
</svg>
