<svg width="38" height="38" viewBox="0 0 38 38" fill="none" xmlns="http://www.w3.org/2000/svg">
<g id="image-bold 1">
<path id="Vector" d="M21.375 14.25C21.375 13.7803 21.5143 13.3211 21.7753 12.9305C22.0362 12.54 22.4072 12.2355 22.8411 12.0558C23.2751 11.876 23.7526 11.829 24.2133 11.9206C24.674 12.0123 25.0972 12.2385 25.4294 12.5706C25.7615 12.9028 25.9877 13.326 26.0794 13.7867C26.171 14.2474 26.124 14.7249 25.9442 15.1589C25.7645 15.5928 25.46 15.9638 25.0695 16.2247C24.6789 16.4857 24.2197 16.625 23.75 16.625C23.1201 16.625 22.516 16.3748 22.0706 15.9294C21.6252 15.484 21.375 14.8799 21.375 14.25ZM35.0312 8.3125V29.6875C35.0312 30.4749 34.7185 31.23 34.1617 31.7867C33.605 32.3435 32.8499 32.6562 32.0625 32.6562H5.9375C5.15014 32.6562 4.39503 32.3435 3.83828 31.7867C3.28153 31.23 2.96875 30.4749 2.96875 29.6875V8.3125C2.96875 7.52514 3.28153 6.77003 3.83828 6.21328C4.39503 5.65653 5.15014 5.34375 5.9375 5.34375H32.0625C32.8499 5.34375 33.605 5.65653 34.1617 6.21328C34.7185 6.77003 35.0312 7.52514 35.0312 8.3125ZM6.53125 8.90625V20.7397L11.5573 15.7136C12.1141 15.157 12.869 14.8444 13.6562 14.8444C14.4435 14.8444 15.1984 15.157 15.7552 15.7136L21.8663 21.8203L24.4165 19.2716C24.9732 18.7151 25.7282 18.4024 26.5154 18.4024C27.3026 18.4024 28.0576 18.7151 28.6143 19.2716L31.4688 22.1305V8.90625H6.53125ZM6.53125 29.0938H24.0973L13.6562 18.6527L6.53125 25.7777V29.0938ZM31.4688 29.0938V27.1641L26.5154 22.2107L24.3853 24.3438L29.1353 29.0938H31.4688Z" fill="black"/>
</g>
</svg>
