<svg width="1210" height="423" viewBox="0 0 1210 423" fill="none" xmlns="http://www.w3.org/2000/svg">
<path d="M1138.5 409.12C1138.5 414.954 1133.95 419.541 1128.5 419.541C1123.05 419.541 1118.5 414.954 1118.5 409.12C1118.5 403.287 1123.05 398.7 1128.5 398.7C1133.95 398.7 1138.5 403.287 1138.5 409.12Z" fill="#D9D9D9" stroke="black" stroke-width="5"/>
<path d="M1187 73.7079C1187 78.3747 1183.36 82.0441 1179 82.0441C1174.64 82.0441 1171 78.3747 1171 73.7079C1171 69.041 1174.64 65.3716 1179 65.3716C1183.36 65.3716 1187 69.041 1187 73.7079Z" fill="#D9D9D9" stroke="black" stroke-width="4"/>
<path d="M1196.5 156.398C1196.5 160.805 1193.06 164.235 1189 164.235C1184.94 164.235 1181.5 160.805 1181.5 156.398C1181.5 151.992 1184.94 148.562 1189 148.562C1193.06 148.562 1196.5 151.992 1196.5 156.398Z" fill="#D9D9D9" stroke="black" stroke-width="5"/>
<path d="M17.5 276.299C17.5 280.705 14.0648 284.135 10 284.135C5.93516 284.135 2.5 280.705 2.5 276.299C2.5 271.892 5.93516 268.463 10 268.463C14.0648 268.463 17.5 271.892 17.5 276.299Z" fill="#D9D9D9" stroke="black" stroke-width="5"/>
<line y1="-1.5" x2="101.446" y2="-1.5" transform="matrix(-0.374583 0.927193 -0.918127 -0.396287 1173 79.9099)" stroke="black" stroke-width="3"/>
<path d="M1207.5 353.304C1207.5 356.284 1205.18 358.557 1202.5 358.557C1199.82 358.557 1197.5 356.284 1197.5 353.304C1197.5 350.325 1199.82 348.052 1202.5 348.052C1205.18 348.052 1207.5 350.325 1207.5 353.304Z" fill="#D9D9D9" stroke="black" stroke-width="5"/>
<path d="M1178.5 250.975C1178.5 253.954 1176.18 256.227 1173.5 256.227C1170.82 256.227 1168.5 253.954 1168.5 250.975C1168.5 247.996 1170.82 245.723 1173.5 245.723C1176.18 245.723 1178.5 247.996 1178.5 250.975Z" fill="#D9D9D9" stroke="black" stroke-width="5"/>
<path d="M22.5 8.07253C22.5 11.0518 20.1841 13.3247 17.5 13.3247C14.8159 13.3247 12.5 11.0518 12.5 8.07253C12.5 5.09322 14.8159 2.82031 17.5 2.82031C20.1841 2.82031 22.5 5.09322 22.5 8.07253Z" fill="#D9D9D9" stroke="black" stroke-width="5"/>
<path d="M103.5 165.184C103.5 168.163 101.184 170.436 98.5 170.436C95.8159 170.436 93.5 168.163 93.5 165.184C93.5 162.205 95.8159 159.932 98.5 159.932C101.184 159.932 103.5 162.205 103.5 165.184Z" fill="#D9D9D9" stroke="black" stroke-width="5"/>
<path d="M55.5 210.664C55.5 213.643 53.1841 215.916 50.5 215.916C47.8159 215.916 45.5 213.643 45.5 210.664C45.5 207.685 47.8159 205.412 50.5 205.412C53.1841 205.412 55.5 207.685 55.5 210.664Z" fill="#D9D9D9" stroke="black" stroke-width="5"/>
<path d="M95.5 332.632C95.5 335.611 93.1841 337.884 90.5 337.884C87.8159 337.884 85.5 335.611 85.5 332.632C85.5 329.653 87.8159 327.38 90.5 327.38C93.1841 327.38 95.5 329.653 95.5 332.632Z" fill="#D9D9D9" stroke="black" stroke-width="5"/>
<path d="M118.5 268.547C118.5 271.526 116.184 273.799 113.5 273.799C110.816 273.799 108.5 271.526 108.5 268.547C108.5 265.568 110.816 263.295 113.5 263.295C116.184 263.295 118.5 265.568 118.5 268.547Z" fill="#D9D9D9" stroke="black" stroke-width="5"/>
<path d="M40.5 140.377C40.5 143.356 38.1841 145.629 35.5 145.629C32.8159 145.629 30.5 143.356 30.5 140.377C30.5 137.398 32.8159 135.125 35.5 135.125C38.1841 135.125 40.5 137.398 40.5 140.377Z" fill="#D9D9D9" stroke="black" stroke-width="5"/>
<path d="M73.5 78.3591C73.5 81.3384 71.1841 83.6114 68.5 83.6114C65.8159 83.6114 63.5 81.3384 63.5 78.3591C63.5 75.3798 65.8159 73.1069 68.5 73.1069C71.1841 73.1069 73.5 75.3798 73.5 78.3591Z" fill="#D9D9D9" stroke="black" stroke-width="5"/>
<line y1="-1.5" x2="38.7577" y2="-1.5" transform="matrix(-0.877246 0.480042 -0.455871 -0.890046 1169 254.593)" stroke="black" stroke-width="3"/>
<line y1="-1.5" x2="59.9099" y2="-1.5" transform="matrix(-0.534135 0.845399 -0.82884 -0.559486 67 81.9771)" stroke="black" stroke-width="3"/>
<line y1="-1.5" x2="89.5982" y2="-1.5" transform="matrix(-0.993324 0.115363 -0.108067 -0.994144 106 268.03)" stroke="black" stroke-width="3"/>
</svg>
