<svg xmlns="http://www.w3.org/2000/svg" width="686" height="524" fill="none" viewBox="0 0 686 524">
  <rect width="701" height="499" y=".5" fill="#F5F6F9" rx="5"/>
  <circle cx="600.5" cy="209" r="6" fill="#D9D9D9" stroke="#000" stroke-width="3"/>
  <circle cx="658.5" cy="288" r="6" fill="#D9D9D9" stroke="#000" stroke-width="3"/>
  <circle cx="650.5" cy="30" r="6" fill="#D9D9D9" stroke="#000" stroke-width="3"/>
  <circle cx="665.5" cy="105" r="6" fill="#D9D9D9" stroke="#000" stroke-width="3"/>
  <circle cx="597" cy="80.5" r="9.5" fill="#D9D9D9" stroke="#000" stroke-width="3"/>
  <circle cx="403.5" cy="107" r="11" fill="#D9D9D9" stroke="#000" stroke-width="3"/>
  <circle cx="454.5" cy="57" r="11" fill="#D9D9D9" stroke="#000" stroke-width="3"/>
  <circle cx="566.5" cy="154" r="6" fill="#D9D9D9" stroke="#000" stroke-width="3"/>
  <circle cx="650.5" cy="192" r="6" fill="#D9D9D9" stroke="#000" stroke-width="3"/>
  <path stroke="#000" stroke-width="2" d="m570.422 156.593 73 34.001"/>
  <circle cx="509.5" cy="102" r="6" fill="#D9D9D9" stroke="#000" stroke-width="3"/>
  <circle cx="536.5" cy="51" r="6" fill="#D9D9D9" stroke="#000" stroke-width="3"/>
  <path stroke="#000" stroke-width="2" d="m513.129 97.009 22-39"/>
  <rect width="264" height="203" x="305" y="320.5" fill="#fff" rx="5"/>
  <circle cx="333.5" cy="355" r="12.5" fill="#D9D9D9"/>
  <path fill="#C2EED8" d="M382 491.5a5 5 0 0 1 5-5h80a5 5 0 0 1 5 5v8a5 5 0 0 1-5 5h-80a5 5 0 0 1-5-5v-8Z"/>
  <path fill="#D9D9D9" d="M321 491.5a5 5 0 0 1 5-5h33a5 5 0 0 1 5 5v8a5 5 0 0 1-5 5h-33a5 5 0 0 1-5-5v-8Z"/>
  <rect width="225" height="10" x="321" y="382.5" fill="#D9D9D9" rx="5"/>
  <rect width="180" height="10" x="321" y="432.5" fill="#D9D9D9" rx="5"/>
  <rect width="200" height="10" x="321" y="457.5" fill="#D9D9D9" rx="5"/>
  <rect width="225" height="10" x="321" y="407.5" fill="#D9D9D9" rx="5"/>
  <path fill="#000" d="M361.885 360.5v-10.182h2.153v4.201h4.37v-4.201h2.147V360.5h-2.147v-4.206h-4.37v4.206h-2.153Zm10.405 0v-7.636h2.118v7.636h-2.118Zm1.064-8.621a1.15 1.15 0 0 1-.81-.313 1.016 1.016 0 0 1-.333-.761c0-.291.111-.542.333-.75.225-.212.496-.318.81-.318.315 0 .584.106.806.318a.988.988 0 0 1 .338.75c0 .295-.113.549-.338.761a1.133 1.133 0 0 1-.806.313Zm2.751 8.621v-7.636h2.053v1.332h.08c.139-.474.373-.832.701-1.074a1.844 1.844 0 0 1 1.133-.368 3.264 3.264 0 0 1 .666.075v1.879a2.725 2.725 0 0 0-.412-.079 3.584 3.584 0 0 0-.482-.035c-.312 0-.59.068-.836.204a1.493 1.493 0 0 0-.576.556c-.14.239-.209.514-.209.826v4.32h-2.118Zm5.728 0v-7.636h2.118v7.636h-2.118Zm1.064-8.621a1.15 1.15 0 0 1-.81-.313 1.016 1.016 0 0 1-.333-.761c0-.291.111-.542.333-.75.225-.212.496-.318.81-.318.315 0 .584.106.806.318a.988.988 0 0 1 .338.75c0 .295-.113.549-.338.761a1.133 1.133 0 0 1-.806.313Zm4.869 4.206v4.415h-2.118v-7.636h2.018v1.347h.09c.169-.444.452-.796.85-1.054.398-.262.88-.393 1.447-.393.53 0 .992.116 1.387.348.394.232.701.564.92.995.218.427.328.938.328 1.531v4.862h-2.118v-4.484c.003-.468-.116-.832-.358-1.094-.242-.265-.575-.398-.999-.398-.286 0-.537.061-.756.184a1.279 1.279 0 0 0-.507.537c-.12.232-.181.512-.184.84Zm10.031 7.438c-.686 0-1.274-.095-1.765-.284-.487-.185-.875-.439-1.163-.76a2.344 2.344 0 0 1-.562-1.084l1.959-.264c.06.153.154.295.283.428.13.133.3.239.512.318.216.083.478.124.786.124.461 0 .84-.112 1.138-.338.302-.222.453-.595.453-1.118v-1.397h-.09a2.007 2.007 0 0 1-.417.601 2.116 2.116 0 0 1-.716.463c-.292.119-.64.179-1.044.179a3.133 3.133 0 0 1-1.566-.398c-.468-.269-.84-.678-1.119-1.228-.275-.554-.412-1.253-.412-2.098 0-.865.14-1.588.422-2.168.282-.58.656-1.014 1.124-1.302.47-.289.986-.433 1.546-.433.427 0 .785.073 1.074.219.288.142.52.321.696.537.179.212.316.421.412.626h.08v-1.282h2.103v7.711c0 .649-.159 1.193-.477 1.63-.319.438-.759.766-1.323.985-.56.222-1.205.333-1.934.333Zm.045-4.723c.341 0 .63-.085.865-.254.239-.172.421-.417.547-.736.129-.321.194-.706.194-1.153 0-.447-.063-.835-.189-1.163-.126-.332-.308-.589-.547-.771a1.394 1.394 0 0 0-.87-.273c-.348 0-.641.094-.88.283a1.702 1.702 0 0 0-.542.776 3.288 3.288 0 0 0-.184 1.148c0 .441.061.822.184 1.143.126.319.307.566.542.741.239.173.532.259.88.259Z"/>
  <rect width="264" height="203" x="24" y="258.5" fill="#fff" rx="5"/>
  <circle cx="52.5" cy="293" r="12.5" fill="#D9D9D9"/>
  <path fill="#C0EEF5" d="M101 429.5a5 5 0 0 1 5-5h50a5 5 0 0 1 5 5v8a5 5 0 0 1-5 5h-50a5 5 0 0 1-5-5v-8Z"/>
  <path fill="#C2EED8" d="M180 429.5a5 5 0 0 1 5-5h50a5 5 0 0 1 5 5v8a5 5 0 0 1-5 5h-50a5 5 0 0 1-5-5v-8Z"/>
  <path fill="#D9D9D9" d="M40 429.5a5 5 0 0 1 5-5h33a5 5 0 0 1 5 5v8a5 5 0 0 1-5 5H45a5 5 0 0 1-5-5v-8Z"/>
  <rect width="225" height="10" x="40" y="320.5" fill="#D9D9D9" rx="5"/>
  <rect width="100" height="10" x="40" y="370.5" fill="#D9D9D9" rx="5"/>
  <rect width="225" height="10" x="40" y="345.5" fill="#D9D9D9" rx="5"/>
  <path fill="#000" d="M86.408 291.246c-.04-.401-.21-.712-.512-.934-.301-.222-.71-.333-1.228-.333-.351 0-.648.049-.89.149-.242.096-.427.23-.556.403a.966.966 0 0 0-.19.586.836.836 0 0 0 .115.477c.086.136.204.254.353.353.15.097.322.181.517.254.196.07.404.129.627.179l.914.219a6.47 6.47 0 0 1 1.223.397c.371.166.693.37.965.612s.482.527.631.855a2.7 2.7 0 0 1 .234 1.129c-.004.623-.163 1.163-.478 1.62-.311.454-.762.807-1.352 1.059-.586.249-1.294.373-2.123.373-.822 0-1.537-.126-2.147-.378-.607-.252-1.08-.624-1.422-1.118-.338-.497-.516-1.112-.532-1.845h2.083c.023.342.12.627.293.855.176.226.41.396.701.512.295.113.628.169 1 .169.364 0 .68-.053.95-.159.27-.106.481-.253.63-.442.15-.189.224-.406.224-.651a.847.847 0 0 0-.204-.577c-.132-.156-.328-.288-.586-.398a5.956 5.956 0 0 0-.94-.298l-1.109-.278c-.858-.209-1.536-.536-2.033-.98-.497-.444-.744-1.042-.74-1.795-.004-.616.16-1.155.492-1.615.334-.461.793-.821 1.377-1.079.583-.259 1.246-.388 1.988-.388.756 0 1.415.129 1.979.388.567.258 1.007.618 1.322 1.079.315.46.478.994.488 1.6h-2.064Zm7.061 7.403c-.772 0-1.44-.164-2.003-.492a3.366 3.366 0 0 1-1.298-1.382c-.305-.593-.457-1.281-.457-2.063 0-.789.152-1.479.457-2.069a3.33 3.33 0 0 1 1.298-1.382c.563-.331 1.231-.497 2.003-.497.773 0 1.439.166 1.999.497a3.32 3.32 0 0 1 1.302 1.382c.305.59.458 1.28.458 2.069 0 .782-.153 1.47-.458 2.063a3.355 3.355 0 0 1-1.302 1.382c-.56.328-1.227.492-1.999.492Zm.01-1.64c.352 0 .645-.1.88-.299a1.85 1.85 0 0 0 .532-.825c.123-.348.184-.744.184-1.188 0-.444-.061-.84-.184-1.188-.12-.348-.297-.624-.532-.826-.235-.202-.528-.303-.88-.303-.354 0-.653.101-.895.303a1.875 1.875 0 0 0-.542.826 3.663 3.663 0 0 0-.178 1.188c0 .444.06.84.178 1.188.123.348.304.623.542.825.242.199.54.299.895.299Zm9.232-6.145v1.591h-4.713v-1.591h4.713Zm-3.634 7.636v-8.188c0-.554.108-1.013.323-1.377a2.08 2.08 0 0 1 .895-.821 2.932 2.932 0 0 1 1.288-.273c.325 0 .621.025.89.074.272.05.474.095.606.135l-.377 1.591a2.512 2.512 0 0 0-.677-.11c-.311 0-.528.073-.651.219-.123.143-.184.343-.184.602v8.148h-2.113Zm8.99-7.636v1.591h-4.599v-1.591h4.599Zm-3.555-1.83h2.118v7.119c0 .196.03.348.09.458.059.106.142.18.248.224.11.043.236.064.378.064.1 0 .199-.008.299-.025.099-.02.175-.035.228-.044l.333 1.576a6.018 6.018 0 0 1-.447.114 3.626 3.626 0 0 1-.701.084c-.511.02-.958-.048-1.342-.203a1.871 1.871 0 0 1-.89-.726c-.212-.328-.317-.743-.314-1.243v-7.398Zm6.441 9.466-2.078-7.636h2.143l1.183 5.13h.07l1.233-5.13h2.103l1.252 5.1h.065l1.163-5.1h2.138l-2.073 7.636h-2.242l-1.313-4.803h-.094l-1.313 4.803h-2.237Zm12.579.144a3.18 3.18 0 0 1-1.302-.253 2.101 2.101 0 0 1-.905-.761c-.219-.338-.328-.759-.328-1.263 0-.424.078-.78.234-1.069.155-.288.368-.52.636-.696.268-.175.573-.308.915-.397.344-.09.706-.153 1.084-.189.444-.047.802-.09 1.073-.13.272-.043.469-.106.592-.189a.412.412 0 0 0 .184-.367v-.03c0-.315-.099-.559-.298-.731-.196-.172-.474-.259-.836-.259-.381 0-.684.085-.909.254a1.164 1.164 0 0 0-.448.626l-1.959-.159c.1-.464.295-.865.587-1.203a2.817 2.817 0 0 1 1.129-.785c.464-.186 1.001-.279 1.61-.279.425 0 .831.05 1.218.149.392.1.738.254 1.04.463.304.209.545.477.72.805.176.325.264.714.264 1.168v5.151h-2.009v-1.059h-.059a2.159 2.159 0 0 1-.492.631c-.206.179-.453.32-.741.423a3.08 3.08 0 0 1-1 .149Zm.607-1.461c.312 0 .587-.062.825-.184.239-.126.426-.295.562-.508.136-.212.204-.452.204-.72v-.811a1.14 1.14 0 0 1-.274.12c-.112.033-.24.064-.382.094-.143.027-.285.051-.428.075l-.388.054a2.678 2.678 0 0 0-.651.174c-.186.08-.33.188-.432.323a.79.79 0 0 0-.155.498c0 .288.105.508.314.661.212.149.48.224.805.224Zm5.337 1.317v-7.636h2.053v1.332h.08c.139-.474.373-.832.701-1.074a1.844 1.844 0 0 1 1.133-.368 3.264 3.264 0 0 1 .667.075v1.879c-.1-.03-.237-.056-.413-.079a3.584 3.584 0 0 0-.482-.035c-.312 0-.59.068-.836.204a1.493 1.493 0 0 0-.576.556 1.612 1.612 0 0 0-.209.826v4.32h-2.118Zm8.853.149c-.785 0-1.461-.159-2.028-.477a3.273 3.273 0 0 1-1.303-1.362c-.305-.59-.457-1.288-.457-2.093 0-.786.152-1.475.457-2.069a3.384 3.384 0 0 1 1.288-1.387c.557-.331 1.21-.497 1.959-.497.503 0 .972.081 1.407.244.437.159.818.399 1.143.721.328.321.583.726.766 1.213.182.484.273 1.05.273 1.7v.582h-6.448v-1.313h4.455c0-.305-.067-.575-.199-.81a1.435 1.435 0 0 0-.552-.552 1.573 1.573 0 0 0-.811-.204c-.321 0-.606.075-.855.224a1.566 1.566 0 0 0-.576.592c-.14.245-.211.518-.214.82v1.248c0 .378.069.704.209.979.142.275.343.487.601.636.259.15.565.224.92.224.235 0 .451-.033.646-.099a1.287 1.287 0 0 0 .821-.786l1.958.129a2.669 2.669 0 0 1-.611 1.233c-.305.348-.699.62-1.183.816-.481.192-1.036.288-1.666.288Zm11.777-.149h-3.61v-10.182h3.639c1.025 0 1.906.204 2.645.612a4.127 4.127 0 0 1 1.706 1.745c.401.759.601 1.667.601 2.724 0 1.061-.2 1.972-.601 2.735a4.131 4.131 0 0 1-1.716 1.754c-.742.408-1.63.612-2.664.612Zm-1.457-1.844h1.367c.637 0 1.172-.113 1.606-.339a2.17 2.17 0 0 0 .984-1.058c.222-.481.333-1.101.333-1.86 0-.752-.111-1.367-.333-1.844a2.149 2.149 0 0 0-.979-1.054c-.434-.226-.97-.338-1.606-.338h-1.372v6.493Zm11.473 1.993c-.785 0-1.461-.159-2.028-.477a3.273 3.273 0 0 1-1.303-1.362c-.305-.59-.457-1.288-.457-2.093 0-.786.152-1.475.457-2.069a3.384 3.384 0 0 1 1.288-1.387c.557-.331 1.21-.497 1.959-.497.503 0 .972.081 1.407.244.437.159.818.399 1.143.721.328.321.583.726.766 1.213.182.484.273 1.05.273 1.7v.582h-6.448v-1.313h4.455c0-.305-.067-.575-.199-.81a1.435 1.435 0 0 0-.552-.552 1.573 1.573 0 0 0-.811-.204c-.321 0-.606.075-.855.224a1.566 1.566 0 0 0-.576.592c-.14.245-.211.518-.214.82v1.248c0 .378.069.704.209.979.142.275.343.487.601.636.259.15.565.224.92.224.235 0 .451-.033.646-.099a1.287 1.287 0 0 0 .821-.786l1.958.129a2.669 2.669 0 0 1-.611 1.233c-.305.348-.699.62-1.183.816-.481.192-1.036.288-1.666.288Zm11.801-7.785-2.669 7.636h-2.387l-2.669-7.636h2.237l1.586 5.463h.079l1.581-5.463h2.242Zm4.318 7.785c-.785 0-1.461-.159-2.028-.477a3.273 3.273 0 0 1-1.303-1.362c-.305-.59-.457-1.288-.457-2.093 0-.786.152-1.475.457-2.069a3.384 3.384 0 0 1 1.288-1.387c.557-.331 1.21-.497 1.959-.497.504 0 .973.081 1.407.244.437.159.818.399 1.143.721.328.321.584.726.766 1.213.182.484.273 1.05.273 1.7v.582h-6.448v-1.313h4.455c0-.305-.067-.575-.199-.81a1.435 1.435 0 0 0-.552-.552 1.572 1.572 0 0 0-.81-.204c-.322 0-.607.075-.856.224a1.566 1.566 0 0 0-.576.592 1.667 1.667 0 0 0-.214.82v1.248c0 .378.07.704.209.979.142.275.343.487.601.636.259.15.565.224.92.224.235 0 .451-.033.646-.099.196-.067.363-.166.503-.299.139-.132.245-.295.318-.487l1.959.129a2.68 2.68 0 0 1-.612 1.233c-.305.348-.699.62-1.183.816-.481.192-1.036.288-1.666.288Zm7.005-10.331V298.5h-2.118v-10.182h2.118Zm5.147 10.331c-.772 0-1.44-.164-2.003-.492a3.36 3.36 0 0 1-1.298-1.382c-.305-.593-.457-1.281-.457-2.063 0-.789.152-1.479.457-2.069a3.325 3.325 0 0 1 1.298-1.382c.563-.331 1.231-.497 2.003-.497s1.439.166 1.999.497c.563.328.997.789 1.302 1.382.305.59.458 1.28.458 2.069 0 .782-.153 1.47-.458 2.063a3.357 3.357 0 0 1-1.302 1.382c-.56.328-1.227.492-1.999.492Zm.01-1.64c.351 0 .645-.1.88-.299.235-.202.413-.477.532-.825.123-.348.184-.744.184-1.188 0-.444-.061-.84-.184-1.188a1.852 1.852 0 0 0-.532-.826c-.235-.202-.529-.303-.88-.303-.355 0-.653.101-.895.303a1.875 1.875 0 0 0-.542.826 3.662 3.662 0 0 0-.179 1.188c0 .444.06.84.179 1.188.123.348.304.623.542.825.242.199.54.299.895.299Zm5.126 4.355v-10.5h2.088v1.282h.094c.093-.205.227-.414.403-.626a2.11 2.11 0 0 1 .696-.537c.288-.146.646-.219 1.074-.219.557 0 1.07.146 1.541.438.471.288.847.724 1.129 1.307.281.58.422 1.308.422 2.183 0 .852-.137 1.571-.412 2.157-.272.584-.643 1.026-1.114 1.328a2.86 2.86 0 0 1-1.571.447c-.411 0-.761-.068-1.049-.204a2.147 2.147 0 0 1-.701-.512 2.593 2.593 0 0 1-.418-.631h-.064v4.087h-2.118Zm2.073-6.682c0 .454.063.85.189 1.188.126.338.308.602.547.791.238.185.528.278.87.278.344 0 .636-.095.875-.283a1.78 1.78 0 0 0 .542-.796 3.39 3.39 0 0 0 .189-1.178c0-.441-.062-.829-.184-1.164a1.744 1.744 0 0 0-.542-.785c-.239-.189-.532-.283-.88-.283-.345 0-.637.091-.875.273-.236.182-.416.441-.542.776-.126.334-.189.729-.189 1.183Zm6.786 3.818v-7.636h2.019v1.347h.089c.159-.448.424-.8.796-1.059.371-.259.815-.388 1.332-.388.524 0 .969.131 1.337.393.368.258.613.61.736 1.054h.08c.155-.438.437-.787.845-1.049.411-.265.896-.398 1.456-.398.713 0 1.291.227 1.736.681.447.451.671 1.091.671 1.919v5.136h-2.113v-4.718c0-.424-.113-.742-.338-.955a1.186 1.186 0 0 0-.845-.318c-.385 0-.685.123-.9.368-.216.242-.323.562-.323.96v4.663h-2.054v-4.763c0-.374-.107-.673-.323-.895-.212-.222-.492-.333-.84-.333-.235 0-.448.06-.636.179-.186.116-.334.28-.443.492a1.57 1.57 0 0 0-.164.736v4.584h-2.118Zm16.25.149c-.786 0-1.462-.159-2.029-.477a3.277 3.277 0 0 1-1.302-1.362c-.305-.59-.458-1.288-.458-2.093 0-.786.153-1.475.458-2.069a3.388 3.388 0 0 1 1.287-1.387c.557-.331 1.21-.497 1.959-.497.504 0 .973.081 1.407.244.438.159.819.399 1.144.721.328.321.583.726.765 1.213.183.484.274 1.05.274 1.7v.582h-6.448v-1.313h4.454c0-.305-.066-.575-.199-.81a1.422 1.422 0 0 0-.552-.552 1.572 1.572 0 0 0-.81-.204c-.321 0-.606.075-.855.224a1.569 1.569 0 0 0-.577.592c-.139.245-.21.518-.214.82v1.248c0 .378.07.704.209.979.143.275.343.487.602.636.258.15.565.224.92.224.235 0 .45-.033.646-.099a1.297 1.297 0 0 0 .82-.786l1.959.129a2.669 2.669 0 0 1-.611 1.233c-.305.348-.7.62-1.184.816-.48.192-1.035.288-1.665.288Zm7.005-4.564v4.415h-2.118v-7.636h2.018v1.347h.09c.169-.444.452-.796.85-1.054.398-.262.88-.393 1.447-.393.53 0 .992.116 1.387.348.394.232.701.564.92.995.218.427.328.938.328 1.531v4.862h-2.118v-4.484c.003-.468-.116-.832-.358-1.094-.242-.265-.575-.398-1-.398-.285 0-.536.061-.755.184a1.279 1.279 0 0 0-.507.537c-.12.232-.181.512-.184.84Zm10.653-3.221v1.591h-4.599v-1.591h4.599Zm-3.555-1.83h2.118v7.119c0 .196.03.348.089.458a.5.5 0 0 0 .249.224c.109.043.235.064.378.064.099 0 .199-.008.298-.025.099-.02.176-.035.229-.044l.333 1.576a5.938 5.938 0 0 1-.448.114 3.626 3.626 0 0 1-.701.084c-.51.02-.957-.048-1.342-.203a1.876 1.876 0 0 1-.89-.726c-.212-.328-.316-.743-.313-1.243v-7.398Z"/>
  <rect width="264" height="203" x="305" y="99.5" fill="#fff" rx="5"/>
  <circle cx="333.5" cy="134" r="12.5" fill="#D9D9D9"/>
  <path fill="#C0EEF5" d="M382 270.5a5 5 0 0 1 5-5h50a5 5 0 0 1 5 5v8a5 5 0 0 1-5 5h-50a5 5 0 0 1-5-5v-8Z"/>
  <path fill="#C2EED8" d="M460 270.5a5 5 0 0 1 5-5h30a5 5 0 0 1 5 5v8a5 5 0 0 1-5 5h-30a5 5 0 0 1-5-5v-8Z"/>
  <path fill="#D9D9D9" d="M321 270.5a5 5 0 0 1 5-5h33a5 5 0 0 1 5 5v8a5 5 0 0 1-5 5h-33a5 5 0 0 1-5-5v-8Z"/>
  <rect width="225" height="10" x="321" y="161.5" fill="#D9D9D9" rx="5"/>
  <rect width="200" height="10" x="321" y="211.5" fill="#D9D9D9" rx="5"/>
  <rect width="100" height="10" x="321" y="236.5" fill="#D9D9D9" rx="5"/>
  <rect width="190" height="10" x="321" y="186.5" fill="#D9D9D9" rx="5"/>
  <path fill="#000" d="M370.869 132.883h-2.178a2.128 2.128 0 0 0-.244-.751 1.907 1.907 0 0 0-.472-.567 2.092 2.092 0 0 0-.666-.358 2.575 2.575 0 0 0-.81-.124c-.527 0-.986.131-1.378.393-.391.258-.694.636-.909 1.133-.216.494-.324 1.094-.324 1.8 0 .726.108 1.336.324 1.83.218.493.523.866.914 1.118.392.252.844.378 1.358.378.288 0 .555-.038.8-.114.249-.076.469-.188.661-.333.193-.15.352-.33.478-.542a2.12 2.12 0 0 0 .268-.726l2.178.01a4.052 4.052 0 0 1-1.323 2.51 4.219 4.219 0 0 1-1.342.806c-.517.195-1.102.293-1.755.293-.908 0-1.72-.205-2.436-.616-.713-.411-1.276-1.006-1.691-1.785-.411-.779-.616-1.722-.616-2.829 0-1.11.209-2.055.626-2.834.418-.779.985-1.372 1.701-1.78.716-.411 1.521-.616 2.416-.616.59 0 1.137.083 1.64.249.508.165.957.407 1.348.725.391.315.709.701.954 1.159.249.457.408.981.478 1.571Zm4.954 6.766c-.772 0-1.44-.164-2.004-.492a3.365 3.365 0 0 1-1.297-1.382c-.305-.593-.458-1.281-.458-2.063 0-.789.153-1.479.458-2.069a3.329 3.329 0 0 1 1.297-1.382c.564-.331 1.232-.497 2.004-.497s1.438.166 1.998.497c.564.328.998.789 1.303 1.382.305.59.457 1.28.457 2.069 0 .782-.152 1.47-.457 2.063a3.353 3.353 0 0 1-1.303 1.382c-.56.328-1.226.492-1.998.492Zm.01-1.64c.351 0 .644-.1.88-.299.235-.202.412-.477.532-.825a3.58 3.58 0 0 0 .184-1.188c0-.444-.062-.84-.184-1.188-.12-.348-.297-.624-.532-.826-.236-.202-.529-.303-.88-.303-.355 0-.653.101-.895.303-.239.202-.419.478-.542.826a3.662 3.662 0 0 0-.179 1.188c0 .444.06.84.179 1.188.123.348.303.623.542.825.242.199.54.299.895.299Zm7.243-2.924v4.415h-2.118v-7.636h2.019v1.347h.089c.169-.444.453-.796.851-1.054.397-.262.88-.393 1.446-.393.531 0 .993.116 1.387.348.395.232.701.564.92.995.219.427.328.938.328 1.531v4.862h-2.118v-4.484c.004-.468-.116-.832-.358-1.094-.242-.265-.575-.398-.999-.398-.285 0-.537.061-.756.184a1.291 1.291 0 0 0-.507.537c-.119.232-.18.512-.184.84Zm10.653-3.221v1.591h-4.598v-1.591h4.598Zm-3.554-1.83h2.117v7.119c0 .196.03.348.09.458.06.106.142.18.249.224.109.043.235.064.377.064.1 0 .199-.008.299-.025.099-.02.175-.035.228-.044l.333 1.576a6.018 6.018 0 0 1-.447.114 3.626 3.626 0 0 1-.701.084c-.51.02-.958-.048-1.342-.203a1.876 1.876 0 0 1-.89-.726c-.212-.328-.317-.743-.313-1.243v-7.398Zm8.332 9.615c-.786 0-1.462-.159-2.028-.477a3.273 3.273 0 0 1-1.303-1.362c-.305-.59-.457-1.288-.457-2.093 0-.786.152-1.475.457-2.069a3.384 3.384 0 0 1 1.288-1.387c.556-.331 1.209-.497 1.958-.497.504 0 .973.081 1.407.244.438.159.819.399 1.144.721.328.321.583.726.765 1.213.183.484.274 1.05.274 1.7v.582h-6.448v-1.313h4.454c0-.305-.066-.575-.199-.81a1.426 1.426 0 0 0-.551-.552 1.576 1.576 0 0 0-.811-.204c-.321 0-.606.075-.855.224a1.576 1.576 0 0 0-.577.592c-.139.245-.21.518-.213.82v1.248c0 .378.069.704.208.979.143.275.343.487.602.636.259.15.565.224.92.224.235 0 .45-.033.646-.099a1.297 1.297 0 0 0 .82-.786l1.959.129a2.669 2.669 0 0 1-.611 1.233c-.305.348-.7.62-1.184.816-.48.192-1.035.288-1.665.288Zm7.005-4.564v4.415h-2.118v-7.636h2.018v1.347h.09c.169-.444.452-.796.85-1.054.398-.262.88-.393 1.447-.393.53 0 .992.116 1.387.348.394.232.701.564.92.995.218.427.328.938.328 1.531v4.862h-2.118v-4.484c.003-.468-.116-.832-.358-1.094-.242-.265-.575-.398-.999-.398-.285 0-.537.061-.756.184a1.285 1.285 0 0 0-.507.537 1.86 1.86 0 0 0-.184.84Zm10.653-3.221v1.591h-4.599v-1.591h4.599Zm-3.555-1.83h2.118v7.119c0 .196.03.348.089.458a.5.5 0 0 0 .249.224c.109.043.235.064.378.064.099 0 .199-.008.298-.025.1-.02.176-.035.229-.044l.333 1.576a6.018 6.018 0 0 1-.447.114 3.636 3.636 0 0 1-.701.084c-.511.02-.958-.048-1.343-.203a1.876 1.876 0 0 1-.89-.726c-.212-.328-.316-.743-.313-1.243v-7.398Zm8.214-.716h2.655l2.804 6.841h.12l2.803-6.841h2.655V139.5h-2.088v-6.627h-.084l-2.635 6.577h-1.422l-2.635-6.602h-.085v6.652h-2.088v-10.182Zm14.949 10.326c-.487 0-.922-.084-1.303-.253a2.101 2.101 0 0 1-.905-.761c-.218-.338-.328-.759-.328-1.263 0-.424.078-.78.234-1.069.156-.288.368-.52.636-.696.269-.175.574-.308.915-.397.345-.09.706-.153 1.084-.189.444-.047.802-.09 1.074-.13.271-.043.469-.106.591-.189a.412.412 0 0 0 .184-.367v-.03c0-.315-.099-.559-.298-.731-.196-.172-.474-.259-.835-.259-.381 0-.685.085-.91.254a1.17 1.17 0 0 0-.448.626l-1.958-.159c.099-.464.295-.865.586-1.203a2.817 2.817 0 0 1 1.129-.785c.464-.186 1.001-.279 1.611-.279.424 0 .83.05 1.218.149a3.2 3.2 0 0 1 1.039.463c.305.209.545.477.721.805.175.325.263.714.263 1.168v5.151h-2.008v-1.059h-.06a2.159 2.159 0 0 1-.492.631c-.206.179-.453.32-.741.423a3.07 3.07 0 0 1-.999.149Zm.606-1.461c.312 0 .587-.062.826-.184a1.46 1.46 0 0 0 .561-.508c.136-.212.204-.452.204-.72v-.811a1.149 1.149 0 0 1-.273.12 5.264 5.264 0 0 1-.383.094c-.143.027-.285.051-.428.075l-.387.054a2.674 2.674 0 0 0-.652.174c-.185.08-.329.188-.432.323a.789.789 0 0 0-.154.498c0 .288.104.508.313.661.212.149.48.224.805.224Zm5.337 1.317v-7.636h2.054v1.332h.079c.139-.474.373-.832.701-1.074a1.845 1.845 0 0 1 1.134-.368c.106 0 .22.007.343.02.122.013.23.032.323.055v1.879c-.1-.03-.237-.056-.413-.079a3.572 3.572 0 0 0-.482-.035c-.312 0-.59.068-.835.204a1.496 1.496 0 0 0-.577.556 1.612 1.612 0 0 0-.209.826v4.32h-2.118Zm7.648-2.197.005-2.541h.308l2.446-2.898h2.431l-3.286 3.838h-.502l-1.402 1.601Zm-1.919 2.197v-10.182h2.118V139.5h-2.118Zm4.773 0-2.248-3.326 1.412-1.496 3.316 4.822h-2.48Zm3.375 0v-7.636h2.118v7.636h-2.118Zm1.064-8.621c-.315 0-.585-.104-.81-.313a1.016 1.016 0 0 1-.333-.761c0-.291.111-.542.333-.75a1.14 1.14 0 0 1 .81-.318c.315 0 .583.106.806.318a.988.988 0 0 1 .338.75c0 .295-.113.549-.338.761a1.135 1.135 0 0 1-.806.313Zm6.812.985v1.591h-4.598v-1.591h4.598Zm-3.554-1.83h2.118v7.119c0 .196.03.348.089.458a.5.5 0 0 0 .249.224c.109.043.235.064.378.064.099 0 .198-.008.298-.025.099-.02.176-.035.229-.044l.333 1.576a6.067 6.067 0 0 1-.448.114 3.626 3.626 0 0 1-.701.084c-.51.02-.958-.048-1.342-.203a1.876 1.876 0 0 1-.89-.726c-.212-.328-.317-.743-.313-1.243v-7.398Zm4.934 9.466v-7.636h2.118v7.636h-2.118Zm1.064-8.621c-.315 0-.585-.104-.81-.313a1.016 1.016 0 0 1-.333-.761c0-.291.111-.542.333-.75a1.14 1.14 0 0 1 .81-.318c.315 0 .583.106.805.318a.984.984 0 0 1 .338.75c0 .295-.112.549-.338.761-.222.209-.49.313-.805.313Zm4.868 4.206v4.415h-2.117v-7.636h2.018v1.347h.089c.17-.444.453-.796.851-1.054.397-.262.88-.393 1.446-.393.531 0 .993.116 1.387.348.395.232.701.564.92.995.219.427.328.938.328 1.531v4.862h-2.118v-4.484c.004-.468-.116-.832-.358-1.094-.242-.265-.575-.398-.999-.398-.285 0-.537.061-.756.184a1.291 1.291 0 0 0-.507.537c-.119.232-.18.512-.184.84Zm10.032 7.438c-.686 0-1.275-.095-1.765-.284-.487-.185-.875-.439-1.163-.76a2.335 2.335 0 0 1-.562-1.084l1.959-.264c.059.153.154.295.283.428.129.133.3.239.512.318.215.083.477.124.786.124.46 0 .84-.112 1.138-.338.302-.222.452-.595.452-1.118v-1.397h-.089a2.01 2.01 0 0 1-.418.601 2.106 2.106 0 0 1-.716.463c-.291.119-.639.179-1.044.179a3.139 3.139 0 0 1-1.566-.398c-.467-.269-.84-.678-1.118-1.228-.275-.554-.413-1.253-.413-2.098 0-.865.141-1.588.423-2.168.281-.58.656-1.014 1.123-1.302a2.899 2.899 0 0 1 1.546-.433c.428 0 .786.073 1.074.219.289.142.521.321.696.537.179.212.317.421.413.626h.08v-1.282h2.103v7.711c0 .649-.16 1.193-.478 1.63-.318.438-.759.766-1.322.985-.56.222-1.205.333-1.934.333Zm.045-4.723c.341 0 .629-.085.865-.254a1.61 1.61 0 0 0 .547-.736c.129-.321.193-.706.193-1.153 0-.447-.063-.835-.188-1.163a1.702 1.702 0 0 0-.547-.771 1.394 1.394 0 0 0-.87-.273c-.348 0-.642.094-.88.283-.239.186-.42.444-.542.776a3.288 3.288 0 0 0-.184 1.148c0 .441.061.822.184 1.143.126.319.306.566.542.741.238.173.532.259.88.259Z"/>
  <rect width="264" height="203" x="24" y="37.5" fill="#fff" rx="5"/>
  <circle cx="52.5" cy="72" r="12.5" fill="#D9D9D9"/>
  <path fill="#C2EED8" d="M101 208.5a5 5 0 0 1 5-5h25a5 5 0 0 1 5 5v8a5 5 0 0 1-5 5h-25a5 5 0 0 1-5-5v-8Z"/>
  <path fill="#D9D9D9" d="M154 208.5a5 5 0 0 1 5-5h50a5 5 0 0 1 5 5v8a5 5 0 0 1-5 5h-50a5 5 0 0 1-5-5v-8Z"/>
  <path fill="#C0EEF5" d="M40 208.5a5 5 0 0 1 5-5h33a5 5 0 0 1 5 5v8a5 5 0 0 1-5 5H45a5 5 0 0 1-5-5v-8Z"/>
  <rect width="190" height="10" x="40" y="99.5" fill="#D9D9D9" rx="5"/>
  <rect width="225" height="10" x="40" y="149.5" fill="#D9D9D9" rx="5"/>
  <rect width="225" height="10" x="40" y="124.5" fill="#D9D9D9" rx="5"/>
  <path fill="#000" d="M80.885 77.5V67.318h4.017c.772 0 1.43.148 1.974.443.543.291.958.697 1.243 1.218.288.517.432 1.113.432 1.79 0 .676-.146 1.272-.437 1.79a3.024 3.024 0 0 1-1.268 1.207c-.55.289-1.217.433-1.999.433h-2.56v-1.725h2.212c.415 0 .756-.072 1.024-.214.272-.146.474-.346.607-.602.136-.258.204-.555.204-.89 0-.338-.068-.633-.204-.885a1.361 1.361 0 0 0-.607-.591c-.271-.143-.616-.214-1.034-.214h-1.451V77.5h-2.153Zm9.025 0v-7.636h2.053v1.332h.08c.139-.474.372-.832.7-1.074a1.843 1.843 0 0 1 1.134-.368 3.217 3.217 0 0 1 .666.075v1.88a2.77 2.77 0 0 0-.413-.08 3.707 3.707 0 0 0-.482-.035c-.311 0-.59.068-.835.204a1.501 1.501 0 0 0-.577.556 1.612 1.612 0 0 0-.209.826v4.32H89.91Zm8.823.15c-.772 0-1.44-.165-2.004-.493a3.369 3.369 0 0 1-1.297-1.382c-.305-.593-.458-1.281-.458-2.063 0-.79.153-1.479.458-2.069a3.328 3.328 0 0 1 1.297-1.382c.564-.331 1.232-.497 2.004-.497s1.438.166 1.999.497a3.32 3.32 0 0 1 1.302 1.383c.305.59.457 1.279.457 2.068 0 .782-.152 1.47-.457 2.063a3.361 3.361 0 0 1-1.302 1.382c-.561.328-1.227.492-1.999.492Zm.01-1.642c.351 0 .645-.099.88-.298.235-.202.413-.477.532-.825a3.58 3.58 0 0 0 .184-1.188c0-.444-.062-.84-.184-1.189a1.848 1.848 0 0 0-.532-.825c-.236-.202-.529-.303-.88-.303-.355 0-.653.101-.895.303-.239.202-.42.477-.542.825-.12.349-.179.745-.179 1.189 0 .444.06.84.18 1.188.122.348.302.623.541.825.242.2.54.299.895.299Zm7.94 1.616c-.58 0-1.106-.149-1.576-.447-.468-.302-.839-.744-1.114-1.328-.272-.586-.408-1.305-.408-2.157 0-.875.141-1.603.423-2.183.282-.583.656-1.019 1.123-1.307a2.88 2.88 0 0 1 1.547-.438c.427 0 .783.073 1.068.219.289.142.521.322.696.537.179.212.315.42.408.626h.065v-3.828h2.113V77.5h-2.088v-1.223h-.09c-.099.212-.24.423-.422.631a2.104 2.104 0 0 1-.701.513c-.285.135-.633.203-1.044.203Zm.671-1.685c.341 0 .629-.093.865-.278a1.77 1.77 0 0 0 .547-.791c.129-.338.194-.734.194-1.188 0-.454-.063-.849-.189-1.183-.126-.335-.309-.594-.547-.776a1.392 1.392 0 0 0-.87-.273c-.348 0-.642.094-.88.283-.239.189-.42.45-.542.785a3.365 3.365 0 0 0-.184 1.164c0 .444.061.837.184 1.178.126.338.306.603.542.796.238.188.532.283.88.283Zm10.312-1.69v-4.385h2.118V77.5h-2.033v-1.387h-.08a2.253 2.253 0 0 1-.86 1.079c-.398.272-.883.407-1.457.407-.51 0-.959-.116-1.347-.348a2.393 2.393 0 0 1-.91-.989c-.215-.427-.325-.94-.328-1.536v-4.862h2.118v4.484c.003.45.124.807.363 1.069.238.262.558.393.959.393.256 0 .494-.058.716-.174.222-.12.401-.295.537-.527.139-.232.207-.519.204-.86Zm7.262 3.4c-.782 0-1.455-.166-2.018-.497a3.365 3.365 0 0 1-1.293-1.392c-.298-.593-.447-1.276-.447-2.048 0-.782.151-1.469.452-2.059a3.363 3.363 0 0 1 1.298-1.387c.56-.334 1.226-.502 1.998-.502.667 0 1.25.121 1.75.363.501.242.897.582 1.189 1.02.291.437.452.95.482 1.54h-1.999c-.056-.38-.205-.687-.447-.92-.239-.235-.552-.352-.94-.352-.328 0-.615.09-.86.268-.242.176-.431.433-.567.77-.136.339-.204.748-.204 1.229 0 .487.067.901.199 1.243.136.341.327.601.572.78.245.18.532.269.86.269.242 0 .459-.05.651-.15.196-.099.357-.243.483-.432.129-.192.213-.422.253-.691h1.999a3.128 3.128 0 0 1-.477 1.541 2.882 2.882 0 0 1-1.169 1.034c-.497.249-1.085.373-1.765.373Zm8.829-7.785v1.59h-4.599v-1.59h4.599Zm-3.555-1.83h2.118v7.12c0 .195.03.347.089.457a.5.5 0 0 0 .249.224c.109.043.235.064.378.064.099 0 .199-.008.298-.025l.229-.044.333 1.576a5.856 5.856 0 0 1-.448.114 3.583 3.583 0 0 1-.701.084c-.51.02-.958-.048-1.342-.203a1.874 1.874 0 0 1-.89-.726c-.212-.328-.316-.743-.313-1.243v-7.398Zm8.214-.716h2.655l2.804 6.841h.119l2.804-6.84h2.655V77.5h-2.088v-6.627h-.084l-2.635 6.577h-1.422l-2.635-6.602h-.085V77.5h-2.088V67.318Zm14.949 10.326a3.18 3.18 0 0 1-1.303-.253 2.098 2.098 0 0 1-.905-.761c-.219-.338-.328-.759-.328-1.263 0-.424.078-.78.234-1.069.155-.288.368-.52.636-.696.269-.175.573-.308.915-.398a6.982 6.982 0 0 1 1.084-.188c.444-.047.802-.09 1.073-.13.272-.043.469-.106.592-.189a.414.414 0 0 0 .184-.368v-.03c0-.314-.099-.558-.298-.73-.196-.172-.474-.259-.835-.259-.382 0-.685.085-.91.254a1.165 1.165 0 0 0-.448.626l-1.959-.159c.1-.464.295-.865.587-1.203a2.817 2.817 0 0 1 1.129-.785c.464-.186 1.001-.279 1.61-.279.425 0 .831.05 1.219.15.391.099.737.253 1.039.462.304.209.545.477.72.805.176.325.264.714.264 1.168V77.5h-2.009v-1.059h-.059c-.123.239-.287.45-.492.631-.206.18-.453.32-.741.423-.289.1-.622.15-.999.15Zm.606-1.462c.312 0 .587-.06.825-.183.239-.126.426-.295.562-.507a1.31 1.31 0 0 0 .204-.721v-.81a1.123 1.123 0 0 1-.273.118 5.05 5.05 0 0 1-.383.095c-.143.026-.285.051-.428.075l-.388.054a2.624 2.624 0 0 0-.651.174c-.186.08-.33.188-.432.323a.786.786 0 0 0-.155.498c0 .288.105.508.314.66.212.15.48.225.805.225Zm7.455-3.097V77.5h-2.118v-7.636h2.019v1.347h.089c.169-.444.452-.796.85-1.054.398-.262.88-.393 1.447-.393.53 0 .993.116 1.387.348.394.232.701.564.92.995.218.427.328.938.328 1.53V77.5h-2.118v-4.484c.003-.468-.116-.832-.358-1.094-.242-.265-.575-.398-.999-.398-.285 0-.537.061-.756.184a1.287 1.287 0 0 0-.507.537 1.86 1.86 0 0 0-.184.84Zm8.769 4.56a3.18 3.18 0 0 1-1.303-.254 2.098 2.098 0 0 1-.905-.761c-.219-.338-.328-.759-.328-1.263 0-.424.078-.78.234-1.069.156-.288.368-.52.636-.696a3.13 3.13 0 0 1 .915-.398 6.982 6.982 0 0 1 1.084-.188c.444-.047.802-.09 1.074-.13.271-.043.469-.106.591-.189a.414.414 0 0 0 .184-.368v-.03c0-.314-.099-.558-.298-.73-.196-.172-.474-.259-.835-.259-.382 0-.685.085-.91.254a1.165 1.165 0 0 0-.448.626l-1.958-.159c.099-.464.295-.865.586-1.203a2.817 2.817 0 0 1 1.129-.785c.464-.186 1.001-.279 1.611-.279.424 0 .83.05 1.218.15.391.099.737.253 1.039.462.305.209.545.477.721.805.175.325.263.714.263 1.168V77.5h-2.008v-1.059h-.06c-.123.239-.287.45-.492.631-.206.18-.453.32-.741.423-.288.1-.622.15-.999.15Zm.606-1.462c.312 0 .587-.062.825-.184.239-.126.426-.295.562-.507a1.31 1.31 0 0 0 .204-.721v-.81a1.123 1.123 0 0 1-.273.118 5.05 5.05 0 0 1-.383.095c-.143.026-.285.051-.428.075l-.388.054a2.624 2.624 0 0 0-.651.174 1.05 1.05 0 0 0-.432.323.786.786 0 0 0-.154.498c0 .288.104.508.313.66.212.15.48.225.805.225Zm8.777 4.34c-.686 0-1.274-.095-1.764-.284-.488-.185-.875-.439-1.164-.76a2.35 2.35 0 0 1-.562-1.084l1.959-.264c.06.153.154.295.284.428.129.133.3.239.512.318.215.083.477.124.785.124.461 0 .84-.112 1.139-.338.301-.222.452-.595.452-1.118v-1.397h-.089a2.01 2.01 0 0 1-.418.601 2.105 2.105 0 0 1-.716.463c-.292.119-.64.179-1.044.179a3.137 3.137 0 0 1-1.566-.398c-.467-.269-.84-.678-1.119-1.228-.275-.554-.412-1.253-.412-2.098 0-.865.141-1.588.422-2.168.282-.58.657-1.014 1.124-1.302a2.905 2.905 0 0 1 1.546-.433c.428 0 .786.073 1.074.219.288.142.52.322.696.537a2.9 2.9 0 0 1 .413.626h.079v-1.282h2.103v7.71c0 .65-.159 1.194-.477 1.631-.318.438-.759.766-1.323.985-.56.222-1.204.333-1.934.333Zm.045-4.723c.342 0 .63-.085.865-.254.239-.172.421-.417.547-.736.129-.321.194-.706.194-1.153 0-.447-.063-.835-.189-1.163-.126-.332-.308-.589-.547-.771a1.388 1.388 0 0 0-.87-.273c-.348 0-.641.094-.88.283a1.709 1.709 0 0 0-.542.775 3.315 3.315 0 0 0-.184 1.149c0 .44.062.822.184 1.143.126.319.307.566.542.741.239.172.532.259.88.259Zm8.855 1.85c-.786 0-1.462-.16-2.029-.478a3.27 3.27 0 0 1-1.302-1.362c-.305-.59-.458-1.288-.458-2.093 0-.786.153-1.475.458-2.069a3.383 3.383 0 0 1 1.287-1.387c.557-.331 1.21-.497 1.959-.497.504 0 .973.081 1.407.244.438.159.819.4 1.144.72.328.322.583.727.765 1.214.182.484.274 1.05.274 1.7v.582h-6.449V72.91h4.455c0-.305-.066-.575-.199-.81a1.416 1.416 0 0 0-.552-.552 1.573 1.573 0 0 0-.81-.204c-.322 0-.607.075-.855.224a1.57 1.57 0 0 0-.577.591 1.68 1.68 0 0 0-.214.82v1.249c0 .377.07.704.209.98.143.274.343.486.602.635.258.15.565.224.919.224.236 0 .451-.033.647-.1.195-.066.363-.165.502-.297a1.3 1.3 0 0 0 .318-.488l1.959.13c-.1.47-.303.881-.612 1.233a3.07 3.07 0 0 1-1.183.815c-.48.192-1.036.288-1.665.288Zm4.887-.15v-7.636h2.018v1.347h.09c.159-.448.424-.8.795-1.059.371-.258.815-.388 1.332-.388.524 0 .97.131 1.338.393.368.258.613.61.736 1.054h.079a2.04 2.04 0 0 1 .845-1.05c.411-.264.897-.397 1.457-.397.713 0 1.291.227 1.735.681.448.451.671 1.09.671 1.92V77.5h-2.113v-4.718c0-.424-.112-.742-.338-.955a1.184 1.184 0 0 0-.845-.318c-.384 0-.684.123-.9.368-.215.242-.323.562-.323.96V77.5h-2.053v-4.763c0-.374-.108-.673-.323-.895-.212-.222-.492-.333-.841-.333-.235 0-.447.06-.636.18a1.23 1.23 0 0 0-.442.491 1.56 1.56 0 0 0-.164.736V77.5h-2.118Zm16.249.15c-.785 0-1.461-.16-2.028-.478a3.267 3.267 0 0 1-1.303-1.362c-.305-.59-.457-1.288-.457-2.093 0-.786.152-1.475.457-2.069a3.386 3.386 0 0 1 1.288-1.387c.557-.331 1.21-.497 1.959-.497.504 0 .973.081 1.407.244.437.159.818.4 1.143.72.328.322.584.727.766 1.214.182.484.273 1.05.273 1.7v.582h-6.448V72.91h4.455c0-.305-.067-.575-.199-.81a1.43 1.43 0 0 0-.552-.552 1.573 1.573 0 0 0-.81-.204c-.322 0-.607.075-.855.224a1.562 1.562 0 0 0-.577.591 1.67 1.67 0 0 0-.214.82v1.249c0 .377.07.704.209.98.142.274.343.486.601.635.259.15.566.224.92.224.235 0 .451-.033.646-.1.196-.066.363-.165.503-.297a1.3 1.3 0 0 0 .318-.488l1.959.13c-.1.47-.304.881-.612 1.233a3.07 3.07 0 0 1-1.183.815c-.481.192-1.036.288-1.666.288Zm7.005-4.565V77.5h-2.118v-7.636h2.019v1.347h.089a2.13 2.13 0 0 1 .851-1.054c.397-.262.879-.393 1.446-.393.531 0 .993.116 1.387.348.395.232.701.564.92.995.219.427.328.938.328 1.53V77.5h-2.118v-4.484c.004-.468-.116-.832-.358-1.094-.242-.265-.575-.398-.999-.398-.285 0-.537.061-.756.184a1.287 1.287 0 0 0-.507.537c-.119.232-.18.512-.184.84Zm10.653-3.221v1.59h-4.599v-1.59h4.599Zm-3.554-1.83h2.117v7.12c0 .195.03.347.09.457.06.106.142.18.248.224.11.043.236.064.378.064.1 0 .199-.008.299-.025l.228-.044.333 1.576a5.934 5.934 0 0 1-.447.114 3.583 3.583 0 0 1-.701.084c-.51.02-.958-.048-1.342-.203a1.87 1.87 0 0 1-.89-.726c-.212-.328-.317-.743-.313-1.243v-7.398Z"/>
</svg>
