<svg width="137" height="75" viewBox="0 0 137 75" fill="none" xmlns="http://www.w3.org/2000/svg">
<path d="M0.685474 55.8387C0.384612 54.5812 0.178772 53.2867 0.075966 51.9634L0.574464 51.9247C0.525133 51.2897 0.5 50.6478 0.5 50V47.9167H0V43.75H0.5V39.5833H0V35.4167H0.5V31.25H0V27.0833H0.5V25C0.5 24.3522 0.525133 23.7103 0.574464 23.0753L0.0759661 23.0366C0.178772 21.7133 0.384613 20.4188 0.685474 19.1613L1.17175 19.2777C1.47302 18.0185 1.87151 16.7971 2.35888 15.6218L1.89702 15.4303C2.40134 14.2141 2.9989 13.0464 3.68078 11.936L4.10685 12.1977C4.78011 11.1013 5.53728 10.0619 6.36944 9.08851L5.98939 8.76361C6.84037 7.76817 7.76818 6.84037 8.76362 5.98939L9.08852 6.36944C10.0619 5.53727 11.1013 4.7801 12.1977 4.10685L11.936 3.68077C13.0464 2.9989 14.2141 2.40134 15.4303 1.89701L15.6218 2.35888C16.7971 1.87151 18.0185 1.47301 19.2777 1.17175L19.1613 0.685473C20.4188 0.384612 21.7133 0.178772 23.0366 0.0759659L23.0753 0.574464C23.7103 0.525133 24.3522 0.5 25 0.5H26.9773V0H30.9318V0.5H34.8864V0H38.8409V0.5H42.7955V0H46.75V0.5H50.7046V0H54.6591V0.5H58.6136V0H62.5682V0.5H66.5227V0H70.4773V0.5H74.4318V0H78.3864V0.5H82.3409V0H86.2955V0.5H90.25V0H94.2045V0.5H98.1591V0H102.114V0.5H106.068V0H110.023V0.5H112C112.648 0.5 113.29 0.525133 113.925 0.574464L113.963 0.075966C115.287 0.178772 116.581 0.384612 117.839 0.685474L117.722 1.17175C118.981 1.47301 120.203 1.87151 121.378 2.35887L121.57 1.89701C122.786 2.40134 123.954 2.9989 125.064 3.68077L124.802 4.10685C125.899 4.7801 126.938 5.53728 127.911 6.36944L128.236 5.98939C129.232 6.84037 130.16 7.76817 131.011 8.76362L130.631 9.08852C131.463 10.0619 132.22 11.1013 132.893 12.1977L133.319 11.936C134.001 13.0464 134.599 14.2141 135.103 15.4303L134.641 15.6218C135.128 16.7971 135.527 18.0185 135.828 19.2777L136.315 19.1613C136.615 20.4188 136.821 21.7133 136.924 23.0366L136.426 23.0753C136.475 23.7103 136.5 24.3522 136.5 25V27.0833H137V31.25H136.5V35.4167H137V39.5833H136.5V43.75H137V47.9167H136.5V50C136.5 50.6478 136.475 51.2897 136.426 51.9247L136.924 51.9634C136.821 53.2867 136.615 54.5812 136.315 55.8387L135.828 55.7223C135.527 56.9815 135.128 58.2029 134.641 59.3782L135.103 59.5697C134.599 60.7859 134.001 61.9536 133.319 63.064L132.893 62.8023C132.22 63.8987 131.463 64.9381 130.631 65.9115L131.011 66.2364C130.16 67.2318 129.232 68.1596 128.236 69.0106L127.911 68.6306C126.938 69.4627 125.899 70.2199 124.802 70.8932L125.064 71.3192C123.954 72.0011 122.786 72.5987 121.57 73.103L121.378 72.6411C120.203 73.1285 118.982 73.527 117.722 73.8282L117.839 74.3145C116.581 74.6154 115.287 74.8212 113.963 74.924L113.925 74.4255C113.29 74.4749 112.648 74.5 112 74.5H110.023V75H106.068V74.5H102.114V75H98.1591V74.5H94.2045V75H90.25V74.5H86.2954V75H82.3409V74.5H78.3864V75H74.4318V74.5H70.4773V75H66.5227V74.5H62.5682V75H58.6136V74.5H54.6591V75H50.7046V74.5H46.75V75H42.7955V74.5H38.8409V75H34.8864V74.5H30.9318V75H26.9773V74.5H25C24.3522 74.5 23.7103 74.4749 23.0753 74.4255L23.0366 74.924C21.7133 74.8212 20.4188 74.6154 19.1613 74.3145L19.2777 73.8282C18.0185 73.527 16.7971 73.1285 15.6218 72.6411L15.4303 73.103C14.2141 72.5987 13.0464 72.0011 11.936 71.3192L12.1977 70.8932C11.1013 70.2199 10.0619 69.4627 9.08852 68.6306L8.76362 69.0106C7.76818 68.1596 6.84037 67.2318 5.98939 66.2364L6.36944 65.9115C5.53728 64.9381 4.7801 63.8987 4.10685 62.8023L3.68077 63.064C2.9989 61.9536 2.40134 60.7859 1.89701 59.5697L2.35888 59.3782C1.87151 58.2029 1.47301 56.9815 1.17175 55.7223L0.685474 55.8387Z" fill="#D9D9D9" fill-opacity="0.5" stroke="#FF6846" stroke-dasharray="4 4"/>
</svg>
